<svg id="Capa_1" enable-background="new 0 0 504.5 504.5" height="512" viewBox="0 0 504.5 504.5" width="512" xmlns="http://www.w3.org/2000/svg"><g><path d="m492.95 207.37c-15.03 2.59-30.08 14.8-45.25 16.1-43.92 3.73-88.29-.26-132.31.99-44.03 1.24-88.1 7.73-132.14 6.48-44.02-1.24-87.65-10.21-131.56-13.95-15.64-1.33-31.35-12-47.08-12.6 1.81-9.277 25.229-13.696 28.039-22.572 3.757-11.866-12.712-28.02-7.289-39.038 73.45 2.27 146.98-7.75 220.43-10.08 22.34-.71 44.66.91 66.46 4.68 18.62 3.21 37.6 4.83 56.63 4.83 9.55 0 19.11-.4 28.65-1.23 24.9-2.14 49.75 5.46 74.59 2.77 9.66 19.87 16.75 41.22 20.83 63.62z" fill="#e27c48"/><path d="m107 144.36c-4.87 12.87-8.7 26.24-11.39 40.03-1.74 8.88-3 17.93-3.75 27.12-13.38-1.75-26.76-3.38-40.17-4.52-15.64-1.33-31.35-2-47.08-2.6 4.23-21.68 11.27-42.35 20.75-61.61 27.21.84 54.42 1.37 81.64 1.58z" fill="#df6937"/><path d="m497 252.25c0 3.24-.06 6.46-.18 9.67-16.31 2.89-32.65 15.37-49.12 16.78-43.92 3.73-88.29-.26-132.31.99-44.03 1.24-88.1 7.73-132.14 6.48-44.02-1.24-87.65-10.21-131.56-13.95-17.14-1.46-34.35-12.12-51.58-12.76-.08-2.39 25.25-18.651 25.25-21.061 0-16.37-23.78-18.519-20.75-34.009 15.73.6 31.44 1.27 47.08 2.6 43.91 3.74 87.54 12.71 131.56 13.95 44.04 1.25 88.11-5.24 132.14-6.48 44.02-1.25 88.39 2.74 132.31-.99 15.17-1.3 30.22-3.51 45.25-6.1 2.66 14.56 4.05 29.56 4.05 44.88z" fill="#efedef"/><path d="m472.12 143.75c-24.84 2.69-49.69 5.09-74.59 7.23-9.54.83-19.1 1.23-28.65 1.23-19.03 0-38.01-1.62-56.63-4.83-21.8-3.77-44.12-5.39-66.46-4.68-73.45 2.33-146.98 2.35-220.43.08 7.756-15.792 47.303-9.057 58.097-22.74 8.147-10.327-13.063-41.572-3.407-50.48 28.99 2.3 54.45-5.87 70.84-4.73 8.96.62 17.47 4.71 23.01 11.78 4.26 5.46 11.76 9.08 20.3 9.08 7.95 0 15-3.14 19.38-7.98 6.18-6.84 14.73-11 23.95-10.96 60.22.27 120.44 8.23 180.55 3.85 22.21 20.75 40.61 45.52 54.04 73.15z" fill="#f3d332"/><path d="m418.08 70.6c-60.11 4.38-120.33 6.42-180.55 6.15-9.22-.04-17.77 4.12-23.95 10.96-4.38 4.84-11.43 7.98-19.38 7.98-8.54 0-16.04-3.62-20.3-9.08-5.54-7.07-14.05-11.16-23.01-11.78-16.39-1.14-41.85-2.97-70.84-5.27 16.555-15.27 44.19-10.955 64.429-21.31 30.231-15.468 55.044-42.29 90.87-44.158 4.355-.227 8.739-.342 13.151-.342 65.55 0 125.17 25.39 169.58 66.85z" fill="#d16161"/><path d="m93.41 266.94c-13.89-1.82-27.79-3.53-41.72-4.72-17.14-1.46-34.35-2.12-51.58-2.76-.08-2.39-.11-4.8-.11-7.21 0-16.37 1.58-32.37 4.61-47.86 15.73.6 31.44 1.27 47.08 2.6 13.41 1.14 26.79 2.77 40.17 4.52-.57 6.84-.86 13.76-.86 20.74 0 2.41.03 4.82.11 7.21.26 9.3 1.04 18.47 2.3 27.48z" fill="#e3e0e4"/><path d="m147.41 74.59c-12.11 14.74-22.56 30.9-31.05 48.19-3.45 7.01-6.58 14.21-9.36 21.58-27.22-.21-54.43-.74-81.64-1.58 13.61-27.71 32.24-52.51 54.69-73.22 27.01 2.14 50.96 3.88 67.36 5.03z" fill="#ecc52e"/><path d="m241.47 3.85c-26.08 11.2-49.85 26.74-70.42 45.71-8.44 7.78-16.34 16.15-23.64 25.03-16.4-1.15-40.35-2.89-67.36-5.03 42.69-39.37 99.19-63.98 161.42-65.71z" fill="#ca4646"/><path d="m283.457 141.463c-.426 12.553 9.406 17.234 25.702 17.787 15.493.526 26.133-3.886 27.744-15.538.083-.604.136-1.215.157-1.834.426-12.553-12.439-23.177-28.734-23.731-6.742-.229-13.015 1.302-18.083 4.064-7.182 3.916-6.536 11.892-6.786 19.252z" fill="#d16161"/><path d="m336.89 143.71c-1.6 11.65-14.61 20.42-30.11 19.9-16.29-.56-29.16-11.18-28.73-23.74.3-8.95 7.27-16.46 17.16-19.83-.09.6-.14 1.21-.16 1.83-.43 12.56 12.44 23.18 28.73 23.74 4.68.16 9.13-.53 13.11-1.9z" fill="#ca4646"/><path d="m18.642 41.58h3.211v3.204c0 4.142 3.358 7.5 7.5 7.5s7.5-3.358 7.5-7.5v-3.204h3.212c4.142 0 7.5-3.358 7.5-7.5s-3.358-7.5-7.5-7.5h-3.212v-3.204c0-4.142-3.358-7.5-7.5-7.5s-7.5 3.358-7.5 7.5v3.204h-3.211c-4.142 0-7.5 3.358-7.5 7.5s3.358 7.5 7.5 7.5z" fill="#e3e0e4"/><path d="m471.212 40.75v-3.204h3.211c4.143 0 7.5-3.358 7.5-7.5s-3.357-7.5-7.5-7.5h-3.211v-3.204c0-4.142-3.357-7.5-7.5-7.5s-7.5 3.358-7.5 7.5v3.204h-3.212c-4.143 0-7.5 3.358-7.5 7.5s3.357 7.5 7.5 7.5h3.212v3.204c0 4.142 3.357 7.5 7.5 7.5s7.5-3.358 7.5-7.5z" fill="#ca4646"/><path d="m497 423.75h-3v-2.992c0-4.142-3.357-7.5-7.5-7.5s-7.5 3.358-7.5 7.5v2.992h-3c-4.143 0-7.5 3.358-7.5 7.5s3.357 7.5 7.5 7.5h3v2.992c0 4.142 3.357 7.5 7.5 7.5s7.5-3.358 7.5-7.5v-2.992h3c4.143 0 7.5-3.358 7.5-7.5s-3.357-7.5-7.5-7.5z" fill="#e3e0e4"/><path d="m496.82 261.92c-1.19 31.08-8.09 60.69-19.68 87.83h-.01c-23.86 2.3-47.72 14.23-71.63 15.79-19.36 1.27-38.72-4.32-53.94-16.36-12.56-9.93-29.23-15.92-47.57-15.92-.95 0-1.93.01-2.89.05-17.58.6-34.26 6.73-46.94 17.24-.06.06-.14.12-.2.18-15.1 12.58-34.04 19.65-53.68 19.21-60.37-1.36-120.67-15.05-180.8-21.08-5.057-11.974 16.316-27.781 13.169-40.625-4.11-16.772-32.035-30.857-32.539-48.775 17.23.64 34.44 1.3 51.58 2.76 43.91 3.74 87.54 12.71 131.56 13.95 44.04 1.25 88.11-5.24 132.14-6.48 44.02-1.25 88.39 2.74 132.31-.99 16.47-1.41 32.81-3.89 49.12-6.78z" fill="#e5936a"/><path d="m124.55 357.01c-35.07-1.93-70.1-4.64-105.07-8.15-11.66-27.61-18.48-57.76-19.37-89.4 17.23.64 34.44 1.3 51.58 2.76 13.93 1.19 27.83 2.9 41.72 4.72 3.02 21.66 8.84 42.42 17.07 61.92 4.1 9.72 8.81 19.11 14.07 28.15z" fill="#e27c48"/><path d="m78.606 266.94c-.617 10.42 4.613 14.828 18.141 15.629 10.145.601 19.136.196 23.255-6.356 1.373-2.184 2.206-4.625 2.36-7.23.617-10.42-9.848-19.517-23.376-20.318-2.559-.152-5.044.005-7.396.428-10.081 1.815-12.483 9.398-12.984 17.847z" fill="#ecc52e"/><path d="m120.14 275.97c-4.04 6.69-13.12 11.04-23.39 10.43-13.53-.8-23.99-9.9-23.37-20.32.49-8.45 8.13-15.18 18.21-16.99-1.29 2.12-2.06 4.48-2.21 6.99-.62 10.42 9.84 19.52 23.37 20.32 2.56.15 5.05-.01 7.39-.43z" fill="#dbb72b"/><path d="m40.211 469.356h-3.211v-3.204c0-4.142-3.358-7.5-7.5-7.5s-7.5 3.358-7.5 7.5v3.204h-3.211c-4.142 0-7.5 3.358-7.5 7.5s3.358 7.5 7.5 7.5h3.211v3.204c0 4.142 3.358 7.5 7.5 7.5s7.5-3.358 7.5-7.5v-3.204h3.211c4.142 0 7.5-3.358 7.5-7.5s-3.357-7.5-7.5-7.5z" fill="#ca4646"/><path d="m477.13 349.75c-8.97 21.03-20.76 40.57-34.9 58.15-13.75 1.13-27.49 12.13-41.24 13.02-17.33 1.12-34.02 7.6-47.04 19.08-.52.46-1.05.91-1.6 1.36-12.68 10.51-29.35 16.63-46.93 17.24-.98.03-1.94.05-2.89.05-18.48 0-35.24-6.07-47.82-16.12-13.66-10.91-30.61-16.85-48.08-17.18-50.76-.95-101.52-13.57-152.16-17.84h-.01c-7.088-8.85 11.606-27.774 5.763-37.551-5.862-9.81-36.256-10.476-40.743-21.099 60.13 6.03 120.43 9.72 180.8 11.08 19.64.44 38.58-6.63 53.68-19.21.06-.06.14-.12.2-.18 12.68-10.51 29.36-16.64 46.94-17.24.96-.04 1.94-.05 2.89-.05 18.34 0 35.01 5.99 47.57 15.92 15.22 12.04 34.58 17.63 53.94 16.36 23.91-1.56 47.77-3.49 71.63-5.79z" fill="#ecc52e"/><path d="m170.46 414.38c-38.7-1.32-77.38-3.61-115.99-6.87h-.01c-14.2-17.73-26.02-37.44-34.98-58.65 34.97 3.51 70 6.22 105.07 8.15 6.22 10.7 13.21 20.89 20.91 30.5h.01c7.66 9.56 16.02 18.55 24.99 26.87z" fill="#dbb72b"/><path d="m346.165 384.476c.072 2.083-.158 4.127-.662 6.112-3.528 13.888-18.438 18.672-39.173 19.386-23.697.816-39.235-5.03-39.809-21.695-.388-11.277 1.898-22.26 14.749-27.888 6.141-2.69 13.286-4.35 20.949-4.614 23.697-.816 43.373 12.033 43.946 28.699z" fill="#e27c48"/><path d="m345.24 391.52c-4.03 13.44-20.67 23.91-40.94 24.61-23.7.81-43.38-12.03-43.95-28.7-.39-11.28 8.07-21.41 20.92-27.04-.68 2.27-1 4.63-.92 7.04.57 16.67 20.25 29.51 43.95 28.7 7.66-.27 14.8-1.93 20.94-4.61z" fill="#df6937"/><path d="m442.23 407.9c-25.295 31.442-58.086 56.596-95.66 72.75-30.088 12.936-63.438 5.919-98.265 5.919-78.5 0-106.028-7.5-151.558-64.34 38.611 3.256 35.015-9.167 73.713-7.838 12.056.414 24.113.734 36.17.959 17.47.33 34.42 6.27 48.08 17.18 12.58 10.05 29.34 16.12 47.82 16.12.95 0 1.91-.02 2.89-.05 17.58-.61 34.25-6.73 46.93-17.24.55-.45 1.08-.9 1.6-1.36 13.02-11.48 29.71-17.96 47.04-19.08 13.75-.89 27.49-1.89 41.24-3.02z" fill="#e5936a"/><path d="m346.57 480.65c-30.09 12.93-63.24 20.1-98.07 20.1-78.5 0-148.5-36.4-194.03-93.24 38.61 3.26 77.29 5.55 115.99 6.87 44.34 41.19 103.75 66.37 169.04 66.37 2.36 0 4.72-.03 7.07-.1z" fill="#e27c48"/></g></svg>