<svg id="Capa_1" enable-background="new 0 0 510 510" height="512" viewBox="0 0 510 510" width="512" xmlns="http://www.w3.org/2000/svg" xmlns:xlink="http://www.w3.org/1999/xlink"><linearGradient id="lg1"><stop offset="0" stop-color="#60b7ff"/><stop offset=".5857" stop-color="#0182fc"/><stop offset="1" stop-color="#2740b0"/></linearGradient><linearGradient id="SVGID_1_" gradientUnits="userSpaceOnUse" x1="-8.26" x2="508.137" xlink:href="#lg1" y1="255" y2="255"/><linearGradient id="SVGID_2_" gradientUnits="userSpaceOnUse" x1="-99" x2="483.308" xlink:href="#lg1" y1="70.963" y2="70.963"/><linearGradient id="SVGID_3_" gradientUnits="userSpaceOnUse" x1="157" x2="450.015" xlink:href="#lg1" y1="168.034" y2="168.034"/><linearGradient id="SVGID_4_" gradientUnits="userSpaceOnUse" x1="-111.838" x2="468.681" xlink:href="#lg1" y1="255" y2="255"/><linearGradient id="SVGID_5_" gradientUnits="userSpaceOnUse" x1="-235" x2="422.368" xlink:href="#lg1" y1="457.007" y2="457.007"/><linearGradient id="SVGID_6_" gradientUnits="userSpaceOnUse" x1="-109.003" x2="597.375" xlink:href="#lg1" y1="261.83" y2="261.83"/><linearGradient id="SVGID_7_" gradientUnits="userSpaceOnUse" x1="-104.667" x2="456.048" xlink:href="#lg1" y1="283.025" y2="283.025"/><linearGradient id="SVGID_8_" gradientUnits="userSpaceOnUse" x1="-104.667" x2="456.048" xlink:href="#lg1" y1="261.416" y2="261.416"/><linearGradient id="SVGID_9_" gradientUnits="userSpaceOnUse" x1="-343" x2="460.421" xlink:href="#lg1" y1="168.034" y2="168.034"/><linearGradient id="SVGID_10_" gradientUnits="userSpaceOnUse" x1="-6" x2="428.005" xlink:href="#lg1" y1="48.776" y2="48.776"/><g><g><circle cx="255" cy="255" fill="url(#SVGID_1_)" r="255"/></g><g><path d="m282.115 121.885c11.468-11.468 26.64-18.508 42.806-19.809 44.403-3.575 84.568-10.473 117.651-19.803-46.598-50.578-113.379-82.273-187.572-82.273-53.219 0-102.625 16.308-143.504 44.196-25.368 17.306-28.701 53.444-6.987 75.159 10.807 10.807 28.329 10.807 39.136 0 10.757-10.757 28.178-10.814 39.006-.129.981.968 1.983 1.957 3.001 2.962 26.772 26.433 69.86 26.3 96.463-.303z" fill="url(#SVGID_2_)"/><path d="m255 185.742c0 12.665 10.451 22.81 23.112 22.495 68.617-1.708 132.645-11.004 182.296-26.606 11.306-3.553 23.161-7.868 34.565-13.04-5.12-14.217-11.458-27.851-18.905-40.768-8.011 3.588-17.627 7.256-29.15 10.877-45.798 14.391-105.511 22.97-170.016 24.555-12.188.301-21.902 10.295-21.902 22.487z" fill="url(#SVGID_3_)"/></g><path d="m255 0c-6.735 0-13.407.266-20.01.778 27.951 2.17 54.638 8.846 79.334 19.303 85.049 36.012 61.254 162.602-31.06 165.501-9.295.292-18.724.441-28.265.441-96.009 0-180.749-15.137-231.419-38.227-15.123 32.594-23.58 68.909-23.58 107.204v.458c.046 25.948 9.866 50.929 27.197 70.24l6.644 7.402c11.001 12.257 28.52 15.72 43.697 9.321 12.849-5.417 27.616-3.463 38.609 5.091 20.916 16.275 48.06 22.202 73.526 14.866l25.05-7.217c14.842-4.276 30.762-.052 41.72 10.834 7.923 7.872 18.64 12.292 29.813 12.292h19.224c19.668 0 38.383-7.997 52.359-21.836 10.608-10.505 24.162-17.539 38.863-20.174 4.862-.871 9.589-1.754 13.104-2.485 23.269-4.84 41.732 19.504 30.599 40.502-.143.27-.287.54-.431.809-3.788 7.08-10.398 12.229-18.197 14.139-30.838 7.551-66.297 12.845-104.282 15.612-15.576 1.135-31.236-.237-46.406-3.95-14.642-3.583-29.739-4.949-44.786-4.051l-55.43 3.307c-10.664.636-21.271-1.967-30.429-7.468-3.761-2.26-7.922-4.76-12.014-7.218-14.137-8.494-31.425-9.917-46.761-3.849-5.905 2.336-12.434 2.573-18.493.67l-.095-.03c-15.484-4.866-27.534-9.818-36.857-14.544 11.564 23.425 26.607 44.823 44.475 63.504 52.061 13.514 116.516 20.865 184.301 20.865.472 0 .944 0 1.416-.001 33.024-.047 37.353 47.751 4.871 53.712-8.622 1.582-17.395 2.73-26.297 3.421 6.603.512 13.275.778 20.01.778 140.833 0 255-114.167 255-255s-114.167-255-255-255z" fill="url(#SVGID_4_)"/><path d="m461.934 404.014c-51.352 17.564-125.047 28.576-206.934 28.576-81.883 0-155.574-11.01-206.926-28.573 6.915 9.59 14.472 18.686 22.625 27.21 52.061 13.512 116.516 20.863 184.301 20.863.471 0 .942 0 1.413-.001 32.883-.05 37.54 47.673 5.205 53.651-8.728 1.614-17.612 2.782-26.628 3.482 6.603.512 13.275.778 20.01.778 85.199 0 160.627-41.793 206.934-105.986z" fill="url(#SVGID_5_)"/><path d="m510 255c0 12.46-.91 24.7-2.64 36.68-8.1 3.18-16.23 6.01-24.12 8.5-61.32 19.27-142.38 29.88-228.24 29.88-17.66 0-35.11-.45-52.22-1.34-11.66-.6-20.78-10.27-20.78-21.94 0-11.22-8.45-20.65-19.6-21.84-41.91-4.45-80.42-11.94-112.81-22.12-16.28-5.12-33.7-11.81-49.27-20.37.82-16.76 3.24-33.1 7.14-48.85 4.98 4.021 20.363 11.636 30.701 16.555 6.585 3.133 12.298 7.828 16.658 13.674l1.754 2.352c11.264 15.102 30.765 21.555 48.813 16.152 11.809-3.535 24.574-1.708 34.917 4.997l4.477 2.902c10.747 6.967 24.7 6.491 34.946-1.194 5.834-4.375 13.035-6.501 20.313-6.04 17.87 1.132 36.265 1.712 54.961 1.712 72.82 0 140.98-8.81 191.92-24.82 29.12-9.15 46.11-18.61 55.62-26.29 3.89 15.75 6.34 32.08 7.15 48.84.2 4.16.31 8.35.31 12.56z" fill="url(#SVGID_6_)"/><g><path d="m378.012 256.104c-37.542 5.966-79.445 9.126-123.012 9.126-3.877 0-7.741-.025-11.589-.074-12.519-.16-22.741 9.959-22.741 22.479v.027c0 12.322 9.915 22.331 22.236 22.49 4.017.052 8.049.078 12.094.078 45.785 0 90.056-3.359 130.013-9.7 10.933-1.735 18.987-11.148 18.987-22.219 0-13.817-12.341-24.376-25.988-22.207z" fill="url(#SVGID_7_)"/><path d="m454.35 237.97c-2.384.811-4.859 1.622-7.43 2.43-1.713.537-3.446 1.067-5.198 1.589-9.532 2.839-16.072 11.602-16.072 21.548v.026c0 15.034 14.48 25.849 28.889 21.562 1.979-.589 3.936-1.187 5.871-1.795 2.792-.875 5.616-1.798 8.457-2.768 9.07-3.098 15.133-11.67 15.133-21.254v-.024c0-15.372-15.098-26.267-29.65-21.314z" fill="url(#SVGID_8_)"/></g><path d="m446.919 138.701c-29.48 9.264-64.732 16.114-103.31 20.246-14.212 15.397-34.618 25.828-60.358 26.637-9.288.292-18.71.441-28.243.441.154 12.533 10.539 22.526 23.105 22.213 68.617-1.708 132.645-11.004 182.296-26.606 11.306-3.553 23.161-7.868 34.565-13.04-5.12-14.217-11.458-27.851-18.905-40.768-8.012 3.587-17.628 7.256-29.15 10.877z" fill="url(#SVGID_9_)"/><path d="m235.012.78c27.937 2.171 54.611 8.844 79.296 19.295 35.74 15.13 52.254 46.256 52.548 77.478 27.874-3.807 53.408-8.989 75.716-15.28-46.598-50.578-113.379-82.273-187.572-82.273-6.727 0-13.392.269-19.988.78z" fill="url(#SVGID_10_)"/></g></svg>